<svg id="Camada_1" data-name="Camada 1" xmlns="http://www.w3.org/2000/svg" viewBox="0 0 32 32"><defs><style>.cls-1{fill:#5ba0d7;}</style></defs><title>Prancheta 1 cópia 5</title><path class="cls-1" d="M25.31,12.19a5.89,5.89,0,0,0,0-.84,9.38,9.38,0,0,0-18.76,0c0,6.3,4.09,12.51,7.48,17.51.65.95,1.56,2.16,2.85,1.44,1.13-.63,1.65-2.27,2.3-3.31A59.31,59.31,0,0,0,23,19.93,21.73,21.73,0,0,0,25.31,12.19ZM17,27.33a1.14,1.14,0,0,1-1.91,0C7.79,16.47,8.22,11.77,8.25,11.47A7.68,7.68,0,0,1,23.6,11.4v.1C23.63,11.71,24.1,16.39,17,27.33Z"/><path class="cls-1" d="M15.9,6.81a4.64,4.64,0,1,0,4.67,4.62A4.64,4.64,0,0,0,15.9,6.81Z"/></svg>
